ISO-10303-21;
HEADER;
FILE_DESCRIPTION(('STEP AP214'),'1');
FILE_NAME('din_6888_1_3_x_6_5.stp','2018-08-31T11:58:05',('TraceParts'),('TraceParts S.A.'),'Spatial InterOp 3D',' ',' ');
FILE_SCHEMA(('automotive_design'));
ENDSEC;
DATA;
#1=PRODUCT_DEFINITION_CONTEXT('',#9,'design');
#2=APPLICATION_PROTOCOL_DEFINITION('INTERNATIONAL STANDARD','automotive_design',1994,#9);
#3=PRODUCT_CATEGORY_RELATIONSHIP('NONE','NONE',#10,#11);
#4=SHAPE_DEFINITION_REPRESENTATION(#12,#13);
#5= (GEOMETRIC_REPRESENTATION_CONTEXT(3)GLOBAL_UNCERTAINTY_ASSIGNED_CONTEXT((#16))GLOBAL_UNIT_ASSIGNED_CONTEXT((#18,#19,#20))REPRESENTATION_CONTEXT('NONE','WORKSPACE'));
#9=APPLICATION_CONTEXT(' ');
#10=PRODUCT_CATEGORY('part','NONE');
#11=PRODUCT_RELATED_PRODUCT_CATEGORY('detail',' ',(#22));
#12=PRODUCT_DEFINITION_SHAPE('NONE','NONE',#23);
#13=ADVANCED_BREP_SHAPE_REPRESENTATION('din_6888_1_3_x_6_5',(#24,#25),#5);
#16=UNCERTAINTY_MEASURE_WITH_UNIT(LENGTH_MEASURE(1.0E-006),#18,'','');
#18= (CONVERSION_BASED_UNIT('MILLIMETRE',#28)LENGTH_UNIT()NAMED_UNIT(#31));
#19= (NAMED_UNIT(#33)PLANE_ANGLE_UNIT()SI_UNIT($,.RADIAN.));
#20= (NAMED_UNIT(#33)SOLID_ANGLE_UNIT()SI_UNIT($,.STERADIAN.));
#22=PRODUCT('din_6888_1_3_x_6_5','din_6888_1_3_x_6_5','PART-din_6888_1_3_x_6_5-DESC',(#39));
#23=PRODUCT_DEFINITION('NONE','NONE',#40,#1);
#24=MANIFOLD_SOLID_BREP('din_6888_1_3_x_6_5',#41);
#25=AXIS2_PLACEMENT_3D('',#42,#43,#44);
#28=LENGTH_MEASURE_WITH_UNIT(LENGTH_MEASURE(1.0),#45);
#31=DIMENSIONAL_EXPONENTS(1.0,0.0,0.0,0.0,0.0,0.0,0.0);
#33=DIMENSIONAL_EXPONENTS(0.0,0.0,0.0,0.0,0.0,0.0,0.0);
#39=PRODUCT_CONTEXT('',#9,'mechanical');
#40=PRODUCT_DEFINITION_FORMATION_WITH_SPECIFIED_SOURCE(' ','NONE',#22,.NOT_KNOWN.);
#41=CLOSED_SHELL('',(#46,#47,#48,#49));
#42=CARTESIAN_POINT('',(0.0,0.0,0.0));
#43=DIRECTION('',(0.0,0.0,1.0));
#44=DIRECTION('',(1.0,0.0,0.0));
#45= (NAMED_UNIT(#31)LENGTH_UNIT()SI_UNIT(.MILLI.,.METRE.));
#46=ADVANCED_FACE('',(#51),#52,.T.);
#47=ADVANCED_FACE('',(#53),#54,.T.);
#48=ADVANCED_FACE('',(#55),#56,.T.);
#49=ADVANCED_FACE('',(#57),#58,.T.);
#51=FACE_OUTER_BOUND('',#59,.T.);
#52=PLANE('',#60);
#53=FACE_OUTER_BOUND('',#61,.T.);
#54=PLANE('',#62);
#55=FACE_OUTER_BOUND('',#63,.T.);
#56=CYLINDRICAL_SURFACE('',#64,8.0);
#57=FACE_OUTER_BOUND('',#65,.T.);
#58=PLANE('',#66);
#59=EDGE_LOOP('',(#67,#68,#69,#70));
#60=AXIS2_PLACEMENT_3D('',#71,#72,#73);
#61=EDGE_LOOP('',(#74,#75));
#62=AXIS2_PLACEMENT_3D('',#76,#77,#78);
#63=EDGE_LOOP('',(#79,#80,#81,#82));
#64=AXIS2_PLACEMENT_3D('',#83,#84,#85);
#65=EDGE_LOOP('',(#86,#87));
#66=AXIS2_PLACEMENT_3D('',#88,#89,#90);
#67=ORIENTED_EDGE('',*,*,#91,.F.);
#68=ORIENTED_EDGE('',*,*,#92,.F.);
#69=ORIENTED_EDGE('',*,*,#93,.F.);
#70=ORIENTED_EDGE('',*,*,#94,.F.);
#71=CARTESIAN_POINT('',(6.66133814775094E-016,0.0,10.218));
#72=DIRECTION('',(0.0,1.0,0.0));
#73=DIRECTION('',(-1.0,0.0,6.12303176911189E-017));
#74=ORIENTED_EDGE('',*,*,#92,.T.);
#75=ORIENTED_EDGE('',*,*,#95,.T.);
#76=CARTESIAN_POINT('',(-1.5,1.5,7.86));
#77=DIRECTION('',(-1.0,0.0,6.12303176911189E-017));
#78=DIRECTION('',(6.12303176911189E-017,0.0,1.0));
#79=ORIENTED_EDGE('',*,*,#93,.T.);
#80=ORIENTED_EDGE('',*,*,#95,.F.);
#81=ORIENTED_EDGE('',*,*,#91,.T.);
#82=ORIENTED_EDGE('',*,*,#96,.F.);
#83=CARTESIAN_POINT('',(4.44089209850063E-016,1.5,7.86));
#84=DIRECTION('',(-1.0,0.0,6.12303176911189E-017));
#85=DIRECTION('',(6.12303176911189E-017,0.0,1.0));
#86=ORIENTED_EDGE('',*,*,#94,.T.);
#87=ORIENTED_EDGE('',*,*,#96,.T.);
#88=CARTESIAN_POINT('',(1.5,1.5,7.86));
#89=DIRECTION('',(1.0,0.0,-6.12303176911189E-017));
#90=DIRECTION('',(-6.12303176911189E-017,0.0,-1.0));
#91=EDGE_CURVE('',#97,#98,#99,.T.);
#92=EDGE_CURVE('',#100,#97,#101,.T.);
#93=EDGE_CURVE('',#102,#100,#103,.T.);
#94=EDGE_CURVE('',#98,#102,#104,.T.);
#95=EDGE_CURVE('',#97,#100,#105,.T.);
#96=EDGE_CURVE('',#102,#98,#106,.T.);
#97=VERTEX_POINT('',#107);
#98=VERTEX_POINT('',#108);
#99=LINE('',#109,#110);
#100=VERTEX_POINT('',#111);
#101=LINE('',#112,#113);
#102=VERTEX_POINT('',#114);
#103=LINE('',#115,#116);
#104=LINE('',#117,#118);
#105=CIRCLE('',#119,8.0);
#106=CIRCLE('',#120,8.0);
#107=CARTESIAN_POINT('',(-1.5,0.0,0.00188317724914455));
#108=CARTESIAN_POINT('',(1.5,0.0,0.00188317724914455));
#109=CARTESIAN_POINT('',(0.0,0.0,0.00188317724914455));
#110=VECTOR('',#121,1.0);
#111=CARTESIAN_POINT('',(-1.5,0.0,15.7181168227509));
#112=CARTESIAN_POINT('',(-1.5,0.0,9.039));
#113=VECTOR('',#122,1.0);
#114=CARTESIAN_POINT('',(1.5,0.0,15.7181168227509));
#115=CARTESIAN_POINT('',(8.88178419700125E-016,0.0,15.7181168227509));
#116=VECTOR('',#123,1.0);
#117=CARTESIAN_POINT('',(1.5,0.0,9.039));
#118=VECTOR('',#124,1.0);
#119=AXIS2_PLACEMENT_3D('',#125,#126,#127);
#120=AXIS2_PLACEMENT_3D('',#128,#129,#130);
#121=DIRECTION('',(1.0,0.0,-6.12303176911189E-017));
#122=DIRECTION('',(-6.12303176911189E-017,0.0,-1.0));
#123=DIRECTION('',(-1.0,0.0,6.12303176911189E-017));
#124=DIRECTION('',(6.12303176911189E-017,0.0,1.0));
#125=CARTESIAN_POINT('',(-1.5,1.5,7.86));
#126=DIRECTION('',(-1.0,0.0,6.12303176911189E-017));
#127=DIRECTION('',(6.12303176911189E-017,0.0,1.0));
#128=CARTESIAN_POINT('',(1.5,1.5,7.86));
#129=DIRECTION('',(1.0,0.0,-6.12303176911189E-017));
#130=DIRECTION('',(6.12303176911189E-017,0.0,1.0));
ENDSEC;
END-ISO-10303-21;
